<mxfile host="app.diagrams.net" modified="2024-02-16T14:53:23.128Z" agent="Mozilla/5.0 (Windows NT 10.0; Win64; x64) AppleWebKit/537.36 (KHTML, like Gecko) Chrome/121.0.0.0 Safari/537.36" etag="2Bw7VAivi4h_G0zOFg9o" version="23.1.5" type="device">
  <diagram id="C5RBs43oDa-KdzZeNtuy" name="Page-1">
    <mxGraphModel dx="1430" dy="763" grid="1" gridSize="10" guides="1" tooltips="1" connect="1" arrows="1" fold="1" page="1" pageScale="1" pageWidth="827" pageHeight="1169" math="0" shadow="0">
      <root>
        <mxCell id="WIyWlLk6GJQsqaUBKTNV-0" />
        <mxCell id="WIyWlLk6GJQsqaUBKTNV-1" parent="WIyWlLk6GJQsqaUBKTNV-0" />
        <mxCell id="CSrmYxMnnZ4aUzAZbRiM-3" value="" style="edgeStyle=orthogonalEdgeStyle;rounded=0;orthogonalLoop=1;jettySize=auto;html=1;" edge="1" parent="WIyWlLk6GJQsqaUBKTNV-1" source="CSrmYxMnnZ4aUzAZbRiM-1" target="CSrmYxMnnZ4aUzAZbRiM-2">
          <mxGeometry relative="1" as="geometry" />
        </mxCell>
        <mxCell id="CSrmYxMnnZ4aUzAZbRiM-1" value="Datenset ausfiltern" style="shape=process;whiteSpace=wrap;html=1;backgroundOutline=1;" vertex="1" parent="WIyWlLk6GJQsqaUBKTNV-1">
          <mxGeometry x="120" y="50" width="120" height="60" as="geometry" />
        </mxCell>
        <mxCell id="CSrmYxMnnZ4aUzAZbRiM-5" value="" style="edgeStyle=orthogonalEdgeStyle;rounded=0;orthogonalLoop=1;jettySize=auto;html=1;" edge="1" parent="WIyWlLk6GJQsqaUBKTNV-1" source="CSrmYxMnnZ4aUzAZbRiM-2" target="CSrmYxMnnZ4aUzAZbRiM-4">
          <mxGeometry relative="1" as="geometry" />
        </mxCell>
        <mxCell id="CSrmYxMnnZ4aUzAZbRiM-2" value="Zwischenergebnisse bilden" style="shape=process;whiteSpace=wrap;html=1;backgroundOutline=1;" vertex="1" parent="WIyWlLk6GJQsqaUBKTNV-1">
          <mxGeometry x="120" y="190" width="120" height="60" as="geometry" />
        </mxCell>
        <mxCell id="CSrmYxMnnZ4aUzAZbRiM-4" value="Gesuchtes Kriterium ausgeben" style="shape=process;whiteSpace=wrap;html=1;backgroundOutline=1;" vertex="1" parent="WIyWlLk6GJQsqaUBKTNV-1">
          <mxGeometry x="120" y="330" width="120" height="60" as="geometry" />
        </mxCell>
        <mxCell id="CSrmYxMnnZ4aUzAZbRiM-7" value="Extrahiere Daten(FilePath, Spalte1, Spalte2, Spalte3)" style="shape=process;whiteSpace=wrap;html=1;backgroundOutline=1;" vertex="1" parent="WIyWlLk6GJQsqaUBKTNV-1">
          <mxGeometry x="294" y="50" width="120" height="60" as="geometry" />
        </mxCell>
      </root>
    </mxGraphModel>
  </diagram>
</mxfile>
